<?xml version="1.0" standalone="no"?>
<!DOCTYPE svg PUBLIC "-//W3C//DTD SVG 20010904//EN"
 "http://www.w3.org/TR/2001/REC-SVG-20010904/DTD/svg10.dtd">
<svg version="1.0" xmlns="http://www.w3.org/2000/svg"
 width="260.000000pt" height="260.000000pt" viewBox="0 0 260.000000 260.000000"
 preserveAspectRatio="xMidYMid meet">
<metadata>
Created by potrace 1.14, written by Peter Selinger 2001-2017
</metadata>
<g transform="translate(0.000000,260.000000) scale(0.100000,-0.100000)"
fill="#000000" stroke="none">
<path d="M1391 2261 c-17 -33 -35 -62 -41 -66 -20 -12 -9 -25 21 -25 24 0 30
4 25 15 -4 10 1 15 15 15 15 0 19 -5 14 -19 -5 -15 1 -20 31 -25 41 -8 52 -3
35 17 -6 8 -17 43 -24 78 -18 87 -36 89 -76 10z m34 -31 c3 -5 -1 -10 -10 -10
-9 0 -13 5 -10 10 3 6 8 10 10 10 2 0 7 -4 10 -10z"/>
<path d="M1051 2291 c-41 -9 -76 -22 -79 -29 -2 -7 3 -12 10 -12 18 0 40 -107
24 -113 -6 -3 -8 -8 -3 -12 7 -8 154 19 165 29 2 3 -2 12 -11 20 -18 19 -31
87 -22 116 7 23 12 23 -84 1z m33 -38 c4 -9 2 -21 -3 -26 -15 -15 -41 0 -41
23 0 25 35 28 44 3z m14 -75 c-4 -33 -34 -35 -40 -3 -4 21 -2 25 19 25 20 0
24 -4 21 -22z"/>
<path d="M1715 2241 c3 -11 -1 -45 -10 -76 -9 -31 -14 -63 -11 -72 6 -13 13
-10 41 17 38 36 40 34 25 -20 -17 -59 4 -60 63 -2 29 29 58 52 65 52 21 0 13
16 -13 28 -33 15 -38 15 -32 -2 3 -8 -4 -22 -15 -33 -20 -18 -21 -18 -13 7 12
40 11 44 -8 48 -10 2 -28 -5 -39 -15 -21 -17 -21 -17 -15 0 4 10 7 23 7 28 0
5 8 9 18 9 13 1 10 6 -13 25 -37 30 -59 33 -50 6z"/>
<path d="M2083 1967 c6 -15 -80 -74 -100 -69 -19 4 -16 -12 8 -42 11 -14 25
-24 30 -20 5 3 7 9 4 14 -3 4 1 10 9 13 11 5 12 0 3 -24 -8 -21 -8 -34 -1 -46
15 -24 34 -28 34 -7 0 10 6 33 12 52 12 33 14 34 55 28 47 -6 53 2 23 29 -11
10 -20 13 -20 7 0 -5 -9 -8 -20 -5 -20 5 -19 17 1 19 5 1 12 2 15 3 11 2 -31
61 -44 61 -8 0 -12 -6 -9 -13z"/>
<path d="M1447 1892 c-4 -15 -17 -40 -31 -57 l-25 -30 6 48 c7 57 -9 63 -26 9
-7 -21 -21 -49 -32 -62 l-19 -25 0 37 c0 66 -24 96 -27 34 -1 -19 -13 -70 -27
-115 -14 -45 -26 -91 -26 -102 0 -11 -5 -17 -10 -14 -19 12 -22 -24 -5 -81 9
-31 14 -58 12 -61 -10 -9 -47 22 -47 39 0 10 -7 18 -15 18 -9 0 -15 9 -15 25
0 14 -4 25 -10 25 -5 0 -10 7 -10 15 0 18 -12 19 -27 4 -7 -7 -9 -3 -6 15 7
33 0 33 -33 -1 -21 -23 -24 -24 -15 -6 6 12 11 30 11 40 -1 13 -10 8 -36 -22
l-35 -40 20 45 c26 58 15 72 -22 30 -28 -31 -30 -32 -24 -10 20 71 20 73 6 68
-8 -2 -27 -27 -42 -54 -17 -29 -26 -39 -23 -24 16 67 18 100 8 100 -13 0 -28
-26 -54 -95 l-19 -50 6 68 c7 81 -7 88 -31 15 -23 -72 -28 -78 -34 -40 -9 58
-25 40 -28 -33 -3 -63 18 -156 54 -243 4 -8 0 -10 -10 -6 -9 3 -16 2 -16 -2 2
-33 113 -106 189 -124 55 -13 131 -69 131 -96 0 -8 -16 -31 -35 -53 -29 -32
-35 -46 -35 -82 0 -69 41 -127 56 -82 21 59 103 99 105 51 2 -76 -4 -165 -13
-182 -10 -19 -12 -19 -35 10 l-25 29 4 -32 c3 -18 3 -33 2 -33 -2 0 -14 4 -28
9 -18 7 -28 6 -36 -4 -9 -10 -4 -15 22 -20 l33 -8 -23 -15 c-12 -8 -22 -18
-22 -23 0 -10 55 -1 90 16 14 6 46 10 73 9 26 -2 47 1 47 6 0 11 -37 23 -49
15 -13 -7 -22 10 -15 28 3 9 22 17 46 19 32 3 47 -1 69 -19 31 -27 39 -28 39
-9 0 8 -11 23 -25 33 l-25 18 40 44 c38 41 56 87 55 136 0 24 27 52 67 69 24
11 39 10 83 -2 54 -15 55 -15 97 13 66 44 174 134 198 167 28 38 23 72 -10 76
-15 2 -75 -18 -135 -45 -105 -45 -115 -48 -215 -50 -97 -3 -103 -2 -80 11 14
9 33 15 43 16 28 0 86 68 98 114 9 31 8 61 0 119 -7 43 -9 87 -6 97 4 13 2 20
-7 20 -8 0 -9 3 -3 8 6 4 11 19 12 35 1 24 -3 27 -29 27 l-31 0 27 21 c14 11
26 27 26 35 0 12 -8 10 -40 -6 -56 -29 -58 -26 -10 26 23 25 39 48 36 51 -3 4
-26 -8 -51 -26 -25 -18 -45 -28 -45 -22 0 5 5 13 10 16 15 9 60 82 60 97 0 7
-23 -10 -51 -37 l-50 -50 25 45 c26 46 33 84 17 94 -5 3 -11 -7 -14 -22z
m-113 -945 c7 -35 -9 -97 -25 -97 -12 0 -11 34 1 46 8 8 7 20 0 39 -11 30 -6
60 9 51 5 -3 12 -21 15 -39z m-44 -107 c0 -5 -8 -10 -17 -10 -15 0 -16 2 -3
10 19 12 20 12 20 0z"/>
<path d="M507 1771 c-13 -21 -14 -32 -6 -37 13 -7 51 35 46 50 -7 21 -23 15
-40 -13z"/>
<path d="M2227 1158 c-5 -32 6 -58 19 -46 11 12 9 71 -2 75 -7 2 -14 -11 -17
-29z"/>
<path d="M400 1101 c-5 -11 -10 -26 -10 -35 0 -8 -5 -18 -11 -22 -15 -9 -31
18 -19 30 16 16 12 26 -10 26 -16 0 -20 -7 -20 -31 0 -46 16 -69 49 -69 32 0
46 13 56 53 4 15 11 27 16 27 15 0 24 -33 11 -38 -22 -7 -12 -22 14 -22 25 0
26 2 21 36 -3 20 -11 42 -18 50 -17 21 -66 18 -79 -5z"/>
<path d="M532 888 c-7 -7 -12 -18 -12 -25 0 -7 -3 -13 -7 -13 -5 0 -15 -5 -23
-10 -13 -8 -12 -11 4 -23 19 -14 19 -15 -2 -26 -18 -10 -23 -9 -28 2 -3 8 -4
18 -3 23 3 20 -2 24 -20 14 -18 -9 -18 -12 11 -65 16 -30 34 -53 39 -49 5 3 7
9 4 14 -7 12 83 63 100 56 26 -10 24 10 -6 62 -31 55 -38 59 -57 40z m31 -42
c3 -8 -1 -17 -9 -20 -26 -10 -32 -7 -27 14 6 23 28 27 36 6z"/>
<path d="M733 646 c6 -16 -60 -99 -73 -91 -21 13 -19 -18 2 -34 13 -10 41 -35
63 -55 44 -39 59 -45 51 -18 -6 20 56 92 79 92 27 0 16 16 -46 68 -61 52 -86
64 -76 38z m70 -60 c8 -19 -16 -38 -37 -30 -19 7 -20 16 -4 32 16 16 35 15 41
-2z m-53 -77 c-6 -10 -17 -16 -25 -13 -18 7 -19 26 -3 42 18 18 40 -5 28 -29z"/>
<path d="M1845 611 c-11 -5 -28 -17 -37 -27 -14 -17 -15 -22 -3 -38 14 -18 15
-18 25 8 13 34 45 32 73 -5 26 -36 15 -73 -18 -65 -29 7 -37 -4 -20 -27 12
-17 15 -17 45 -2 36 19 55 54 46 88 -13 54 -66 87 -111 68z"/>
<path d="M1597 482 c-40 -13 -46 -19 -41 -36 10 -32 14 -33 34 -6 15 19 20 21
23 10 3 -8 10 -30 16 -49 6 -18 8 -44 5 -57 -6 -23 -6 -24 32 -11 38 14 58 37
32 37 -17 0 -42 88 -32 113 8 21 -4 21 -69 -1z"/>
<path d="M1015 467 c4 -13 -3 -42 -14 -67 -18 -40 -21 -43 -27 -22 -8 28 -21
28 -29 1 -8 -25 1 -32 68 -55 53 -17 75 -10 63 22 -5 13 -9 15 -18 6 -7 -7
-16 -12 -20 -12 -10 0 31 104 43 108 18 7 8 20 -22 31 -45 15 -50 14 -44 -12z"/>
<path d="M1299 421 c-34 -28 -34 -104 0 -132 30 -25 72 -24 105 2 20 16 26 29
26 60 0 75 -76 115 -131 70z m79 -64 c3 -51 -14 -71 -43 -47 -18 15 -20 71 -3
88 25 25 43 9 46 -41z"/>
</g>
</svg>
